<?xml version="1.0" standalone="no"?>
<!DOCTYPE svg PUBLIC "-//W3C//DTD SVG 20010904//EN"
 "http://www.w3.org/TR/2001/REC-SVG-20010904/DTD/svg10.dtd">
<svg version="1.0" xmlns="http://www.w3.org/2000/svg"
 width="512.000000pt" height="512.000000pt" viewBox="0 0 512.000000 512.000000"
 preserveAspectRatio="xMidYMid meet">
<metadata>
Created by potrace 1.11, written by Peter Selinger 2001-2013
</metadata>
<g transform="translate(0.000000,512.000000) scale(0.100000,-0.100000)"
fill="#000000" stroke="none">
<path d="M4184 4663 c7 -18 -31 -56 -46 -47 -6 4 -14 1 -18 -6 -4 -7 -45 -16
-96 -22 -105 -11 -184 -27 -201 -40 -7 -6 -24 -7 -38 -4 -14 4 -25 3 -25 -1 0
-5 -26 -9 -57 -9 -32 -1 -71 -9 -88 -18 -16 -9 -37 -16 -46 -16 -8 0 -26 -11
-39 -25 -13 -14 -31 -23 -39 -20 -9 3 -29 -6 -45 -20 -16 -14 -35 -25 -42 -25
-7 0 -22 -14 -34 -31 -12 -16 -24 -28 -26 -26 -7 6 -86 -71 -98 -95 -7 -13
-17 -23 -23 -23 -6 0 -15 -3 -19 -7 -4 -5 -2 -8 4 -8 7 0 12 -7 12 -15 0 -8
-7 -15 -15 -15 -9 0 -19 -10 -24 -23 -9 -23 -41 -56 -41 -42 0 4 -7 2 -15 -5
-8 -7 -13 -16 -10 -20 3 -5 -5 -25 -17 -46 -19 -32 -23 -35 -29 -18 -6 15 -8
12 -8 -12 -1 -34 -20 -96 -32 -104 -4 -3 -13 -53 -19 -110 -8 -82 -7 -123 3
-183 9 -53 10 -77 3 -77 -6 0 -4 -5 5 -10 9 -5 20 -25 23 -44 8 -41 57 -152
92 -208 14 -21 22 -43 18 -49 -3 -5 -1 -16 5 -23 7 -8 10 -19 9 -26 -2 -7 3
-15 10 -17 6 -3 12 3 12 12 0 11 21 -5 58 -43 52 -55 144 -132 158 -132 3 0
21 -12 40 -26 18 -14 41 -24 49 -20 8 3 15 2 15 -2 0 -12 50 -31 56 -21 3 5 1
9 -5 9 -6 0 -18 14 -26 30 -9 17 -20 28 -24 25 -5 -3 -12 2 -15 11 -9 25 -8
26 20 8 l25 -17 -21 41 c-12 23 -25 42 -29 42 -9 0 -8 54 2 61 5 4 3 17 -4 30
-8 13 -14 29 -14 34 -1 6 -11 32 -23 60 -13 27 -28 70 -33 95 -6 25 -17 59
-25 75 -13 29 -12 31 14 42 15 6 32 8 37 4 15 -12 55 -20 55 -12 0 14 -23 29
-35 24 -14 -5 -55 30 -55 47 0 6 -4 10 -9 10 -16 0 -20 54 -5 71 13 15 19 15
42 4 40 -20 84 -23 90 -6 3 10 0 12 -12 8 -11 -4 -16 -1 -16 11 0 14 -2 15 -9
3 -8 -12 -13 -11 -30 10 -27 31 -26 67 1 119 27 50 69 94 127 135 34 23 57 30
107 33 75 5 76 4 38 -89 -47 -116 -22 -211 73 -279 40 -29 58 -35 114 -38 106
-6 192 46 224 137 22 63 20 158 -6 205 -11 21 -18 40 -16 42 12 12 166 -59
180 -83 9 -16 -12 -154 -27 -175 -9 -12 -16 -30 -16 -40 0 -10 -4 -18 -10 -18
-5 0 -10 -4 -10 -10 0 -45 110 54 148 133 12 26 26 46 31 43 17 -11 -9 -118
-39 -161 -17 -24 -30 -48 -30 -54 0 -6 -6 -11 -13 -11 -7 0 -17 -8 -23 -18 -9
-14 -7 -33 10 -85 22 -69 36 -78 36 -24 0 21 4 28 14 24 8 -3 17 -1 19 6 3 8
10 7 23 -5 13 -11 24 -14 35 -7 12 6 24 3 42 -11 14 -11 30 -20 36 -20 6 0 11
-9 11 -19 0 -11 12 -34 28 -52 20 -25 22 -31 9 -26 -12 4 -16 3 -11 -4 3 -6
17 -9 30 -6 19 3 24 0 24 -15 0 -13 5 -18 13 -15 8 3 18 -7 24 -24 13 -34 -1
-49 -17 -19 -14 27 -24 25 -40 -7 -24 -49 -15 -83 21 -83 17 0 24 11 20 32 0
5 3 7 8 5 5 -1 25 15 45 37 35 37 37 38 61 22 13 -9 28 -16 33 -16 14 0 42 82
42 123 0 34 2 37 23 32 37 -10 47 28 47 170 0 69 -3 125 -7 125 -5 0 -7 26 -5
58 12 206 -72 464 -206 628 -71 87 -168 175 -244 219 -77 46 -262 109 -254 88z
m285 -194 c33 -22 61 -44 61 -48 0 -4 10 -18 21 -30 17 -18 19 -25 9 -31 -11
-7 -11 -11 -1 -24 8 -9 10 -16 5 -16 -4 0 -3 -5 4 -12 9 -9 16 -7 32 7 26 24
26 10 -1 -23 -18 -24 -19 -27 -5 -30 11 -2 15 -10 11 -22 -4 -11 1 -20 11 -24
14 -5 15 -9 5 -19 -9 -9 -14 -9 -21 3 -8 12 -10 11 -10 -5 -1 -18 -2 -17 -15
5 -12 22 -14 23 -20 8 -10 -26 -24 -22 -18 5 5 21 4 21 -16 -3 -15 -18 -21
-21 -21 -9 0 8 6 21 13 28 10 11 7 13 -15 9 -15 -3 -29 0 -31 6 -3 7 -10 6
-21 -4 -16 -12 -19 -12 -27 3 -5 9 -25 21 -45 26 -30 8 -38 7 -55 -10 -23 -23
-33 -24 -49 -5 -8 11 -18 12 -34 6 -20 -7 -22 -6 -19 23 3 30 3 31 -7 8 -8
-18 -13 -22 -22 -13 -8 8 -17 4 -34 -19 -20 -28 -23 -29 -32 -13 -9 16 -13 17
-35 5 -19 -10 -29 -11 -47 -1 -16 8 -25 9 -29 1 -9 -13 -52 -10 -68 5 -14 14
-53 7 -53 -8 0 -7 -4 -7 -12 -1 -23 18 -61 22 -87 9 -14 -7 -32 -11 -38 -10
-7 1 -17 2 -22 3 -12 1 -8 41 4 42 6 1 21 9 35 19 14 9 50 23 80 30 30 7 69
19 86 26 16 7 60 20 97 28 81 19 183 53 217 72 38 21 102 43 131 43 15 1 53
-16 88 -40z m-849 7 c0 -3 -4 -8 -10 -11 -5 -3 -10 -1 -10 4 0 6 5 11 10 11 6
0 10 -2 10 -4z m-60 -26 c0 -5 -5 -10 -11 -10 -5 0 -7 5 -4 10 3 6 8 10 11 10
2 0 4 -4 4 -10z m260 6 c0 -2 -7 -6 -15 -10 -8 -3 -15 -1 -15 4 0 6 7 10 15
10 8 0 15 -2 15 -4z m-80 -10 c0 -2 -8 -10 -17 -17 -16 -13 -17 -12 -4 4 13
16 21 21 21 13z m910 -232 c0 -8 -4 -12 -10 -9 -5 3 -10 10 -10 16 0 5 5 9 10
9 6 0 10 -7 10 -16z m-20 -70 c0 -2 -7 -4 -15 -4 -8 0 -15 4 -15 10 0 5 7 7
15 4 8 -4 15 -8 15 -10z m-1074 -168 c-44 -32 -146 -127 -144 -134 1 -4 -12
-29 -30 -56 -18 -28 -32 -54 -32 -58 0 -4 -4 -8 -10 -8 -26 0 10 96 55 149 62
72 118 121 147 129 44 12 49 4 14 -22z m334 -126 c19 -10 21 -42 5 -82 -8 -20
-69 -26 -80 -8 -3 6 -10 10 -16 10 -14 0 -11 -20 4 -20 21 -1 67 -48 61 -63
-7 -19 -48 -37 -63 -27 -9 5 -10 9 -2 14 18 12 12 36 -8 36 -24 0 -32 19 -19
43 5 10 7 25 4 33 -7 17 6 18 22 2 9 -9 12 -8 12 8 0 11 -6 26 -12 32 -26 26
51 44 92 22z m20 -225 c0 -18 -9 -19 -32 -1 -18 13 -23 37 -11 49 9 9 43 -28
43 -48z m120 35 c0 -5 -4 -10 -10 -10 -5 0 -10 5 -10 10 0 6 5 10 10 10 6 0
10 -4 10 -10z m580 -221 c0 -6 -4 -7 -10 -4 -5 3 -10 11 -10 16 0 6 5 7 10 4
6 -3 10 -11 10 -16z m-45 1 c3 -6 -1 -7 -9 -4 -18 7 -21 14 -7 14 6 0 13 -4
16 -10z m266 -23 c-8 -8 -11 -7 -11 4 0 20 13 34 18 19 3 -7 -1 -17 -7 -23z
m-208 -24 c7 -37 5 -37 -15 -2 -13 22 -14 29 -4 29 8 0 16 -12 19 -27z m-38
-23 c3 -11 11 -20 16 -20 5 0 9 -7 9 -16 0 -13 -5 -11 -25 7 -25 24 -33 49
-16 49 5 0 13 -9 16 -20z m41 -167 c-10 -10 -19 5 -10 18 6 11 8 11 12 0 2 -7
1 -15 -2 -18z m-1136 -131 c0 -5 -7 -17 -16 -28 -14 -17 -15 -17 -10 -1 3 10
6 23 6 28 0 5 5 9 10 9 6 0 10 -4 10 -8z"/>
<path d="M4135 4640 c3 -5 10 -10 16 -10 5 0 9 5 9 10 0 6 -7 10 -16 10 -8 0
-12 -4 -9 -10z"/>
<path d="M437 3873 c-11 -19 -17 -64 -8 -59 13 8 32 66 21 66 -5 0 -11 -3 -13
-7z"/>
<path d="M758 3822 c-16 -9 -28 -25 -28 -35 0 -10 -6 -33 -14 -51 -14 -33 -14
-33 10 -22 25 12 78 106 66 117 -4 5 -19 0 -34 -9z"/>
<path d="M1022 3803 c-5 -10 -7 -24 -5 -30 7 -19 -36 -16 -43 2 -7 16 -54 21
-54 5 0 -5 -16 -17 -36 -25 -39 -16 -63 -41 -64 -64 0 -8 -10 -34 -21 -58 -12
-24 -19 -47 -16 -50 3 -3 -3 -14 -14 -26 -10 -11 -19 -32 -19 -45 0 -14 -15
-38 -40 -62 -37 -36 -40 -42 -40 -92 0 -45 4 -59 24 -77 15 -14 22 -30 19 -42
-8 -30 6 -89 22 -89 12 0 36 38 79 128 9 18 16 21 36 16 l25 -6 -25 27 c-21
22 -22 29 -12 45 7 11 12 33 12 50 0 17 6 33 13 35 6 3 12 22 13 43 0 24 11
53 27 77 15 22 27 47 27 56 0 9 11 36 23 60 13 24 22 50 20 57 -3 7 4 12 16
12 20 0 29 -15 14 -22 -5 -1 -6 -21 -3 -42 l5 -39 25 26 c14 14 25 30 26 34 0
4 4 25 8 46 12 53 -21 91 -42 50z"/>
<path d="M1177 3803 c-3 -5 -4 -21 -3 -38 1 -23 6 -31 24 -33 13 -2 26 -11 29
-20 18 -58 52 -129 68 -142 8 -7 15 -19 15 -26 0 -8 6 -14 14 -14 8 0 16 -7
20 -15 3 -8 12 -15 19 -15 8 0 25 -8 38 -19 13 -10 40 -22 59 -26 48 -11 180
-13 186 -4 3 5 15 4 28 -1 15 -5 27 -5 33 1 6 6 26 9 44 7 33 -3 34 -4 39 -57
4 -34 2 -55 -5 -57 -6 -3 -10 -19 -9 -37 1 -17 -3 -41 -9 -52 -6 -11 -10 -24
-9 -29 2 -4 -2 -14 -8 -20 -5 -7 -7 -15 -5 -18 3 -3 -6 -13 -21 -23 -19 -12
-23 -20 -15 -28 16 -16 13 -41 -8 -64 -13 -14 -16 -24 -9 -31 6 -6 6 -12 -1
-16 -6 -4 -11 -2 -11 5 0 7 -8 5 -20 -6 -11 -10 -20 -28 -20 -39 1 -20 1 -20
20 3 26 31 26 7 0 -44 -11 -22 -20 -54 -20 -71 0 -18 -7 -39 -15 -48 -8 -8
-15 -18 -15 -23 0 -4 -9 -19 -20 -33 -21 -26 -27 -90 -10 -90 18 0 59 47 66
74 5 21 10 25 29 20 19 -5 27 1 47 35 19 34 27 41 46 36 12 -3 22 -1 22 6 0 6
7 17 15 25 16 16 31 81 21 91 -3 4 -19 -6 -34 -20 -16 -15 -33 -27 -39 -27 -6
0 -16 -7 -23 -15 -9 -10 -9 -15 -1 -15 6 0 11 -7 11 -15 0 -8 -4 -15 -10 -15
-5 0 -9 -3 -9 -7 3 -20 -2 -34 -10 -28 -6 3 -15 -4 -21 -15 -14 -26 -44 -27
-35 -1 3 11 8 30 10 43 3 13 13 29 22 36 10 7 18 16 19 20 0 4 6 19 12 33 11
27 72 67 72 47 0 -6 6 -6 15 2 8 7 12 16 9 21 -9 16 14 10 31 -8 14 -13 18
-14 25 -3 4 7 6 19 3 27 -3 7 2 13 12 13 9 0 14 4 10 9 -3 6 2 14 11 19 11 6
18 24 20 48 1 22 2 45 3 52 1 6 7 12 14 12 8 0 18 17 23 37 5 20 15 38 23 41
9 3 11 -2 6 -17 -5 -16 -3 -20 10 -15 9 4 14 13 11 21 -3 8 -6 27 -6 42 0 15
-10 38 -22 51 -15 16 -18 25 -10 28 17 5 15 29 -4 36 -8 3 -12 2 -9 -4 10 -16
-5 -12 -35 10 -15 11 -29 17 -32 14 -12 -11 -28 27 -33 72 -2 27 -12 85 -22
129 -10 44 -18 96 -18 117 0 36 0 36 -50 42 -84 11 -225 -1 -247 -20 -20 -19
-24 -44 -7 -44 5 0 7 5 4 10 -3 6 0 10 8 10 10 0 13 -7 10 -19 -6 -24 14 -36
33 -20 13 10 17 10 26 -2 8 -11 9 -10 4 4 -4 13 2 20 20 27 16 7 23 14 18 22
-5 9 -2 8 10 -1 9 -8 14 -21 11 -30 -3 -9 3 -5 13 8 14 17 25 22 40 17 28 -9
39 -46 18 -61 -9 -7 -16 -20 -16 -29 0 -20 -29 -48 -74 -72 -34 -19 -110 -13
-163 13 -69 33 -124 150 -88 187 12 11 7 14 -32 20 -63 8 -181 8 -186 -1z
m229 -280 c-6 -6 -46 20 -46 30 0 4 11 0 25 -9 14 -9 24 -19 21 -21z m564
-228 c0 -8 -4 -15 -10 -15 -5 0 -7 7 -4 15 4 8 8 15 10 15 2 0 4 -7 4 -15z
m-90 -119 c0 -3 -4 -8 -10 -11 -5 -3 -10 -1 -10 4 0 6 5 11 10 11 6 0 10 -2
10 -4z m-93 -147 c-17 -10 -50 -1 -42 11 2 4 16 5 31 2 21 -4 23 -7 11 -13z
m-22 -29 c-3 -5 -10 -10 -16 -10 -5 0 -9 5 -9 10 0 6 7 10 16 10 8 0 12 -4 9
-10z"/>
<path d="M500 3776 c0 -8 -5 -16 -10 -18 -6 -2 -15 -32 -21 -68 -6 -36 -17
-84 -25 -108 -19 -58 -19 -198 0 -205 40 -16 77 101 77 245 0 29 2 79 4 111 3
44 1 57 -11 57 -8 0 -14 -6 -14 -14z"/>
<path d="M2036 3764 c18 -12 21 -22 17 -54 -5 -35 -4 -38 15 -33 17 4 20 10
15 41 -5 26 -3 33 6 28 6 -4 11 -24 11 -44 -1 -94 8 -172 23 -186 8 -9 17 -21
19 -28 2 -6 10 -8 16 -4 15 9 16 46 2 46 -11 0 -13 30 -4 53 3 9 14 12 29 9
28 -5 35 8 57 110 l15 67 -68 0 c-46 0 -69 -4 -69 -12 0 -7 -5 -4 -11 6 -7 12
-22 17 -52 16 -40 0 -41 -1 -21 -15z m135 -97 c-1 -12 -15 -9 -19 4 -3 6 1 10
8 8 6 -3 11 -8 11 -12z"/>
<path d="M2295 3748 c-5 -13 -9 -34 -11 -48 -11 -92 -12 -95 -40 -112 -16 -10
-32 -26 -36 -38 -12 -31 15 -25 57 14 24 23 42 32 55 29 24 -6 27 13 6 36 -15
17 -10 85 5 75 5 -3 9 2 9 10 0 9 5 16 10 16 6 0 10 5 10 11 0 5 -4 7 -10 4
-5 -3 -10 1 -10 9 0 25 -37 19 -45 -6z"/>
<path d="M2548 3763 c-10 -2 -18 -9 -18 -14 0 -11 31 -39 45 -40 6 0 15 -5 21
-10 14 -12 55 35 48 54 -4 12 -65 18 -96 10z"/>
<path d="M621 3746 c-18 -21 -63 -137 -66 -171 -15 -131 -16 -212 -4 -247 15
-46 27 -48 56 -5 16 24 23 53 27 117 3 47 11 110 18 140 6 30 13 83 14 118 2
54 0 62 -15 62 -10 0 -24 -6 -30 -14z"/>
<path d="M2843 3747 c-13 -6 -23 -19 -23 -29 0 -11 4 -17 9 -13 5 3 16 -1 23
-9 12 -12 19 -12 46 0 35 14 41 32 15 40 -10 3 -25 9 -33 13 -8 5 -25 4 -37
-2z"/>
<path d="M2756 3722 c-4 -7 -15 -12 -26 -12 -13 0 -17 -5 -13 -19 5 -21 41
-18 50 5 7 20 -1 41 -11 26z"/>
<path d="M2419 3704 c-7 -9 -5 -16 10 -23 20 -11 23 -9 33 19 7 19 -28 22 -43
4z"/>
<path d="M2795 3670 c-21 -23 -21 -47 0 -30 8 7 15 9 15 4 0 -9 29 27 30 37 0
12 -31 5 -45 -11z"/>
<path d="M3405 3611 c-7 -12 9 -26 32 -29 16 -2 21 2 19 15 -3 17 -42 28 -51
14z"/>
<path d="M2070 3594 c0 -8 5 -12 10 -9 6 3 10 10 10 16 0 5 -4 9 -10 9 -5 0
-10 -7 -10 -16z"/>
<path d="M1105 3569 c-12 -18 -24 -90 -18 -106 7 -17 38 -17 52 1 7 8 26 18
42 21 25 6 27 8 15 21 -8 8 -18 14 -22 14 -5 0 -20 14 -35 31 -19 23 -29 28
-34 18z"/>
<path d="M926 3562 c15 -9 15 -62 0 -68 -6 -2 -12 -33 -13 -72 -3 -79 13 -110
45 -93 16 8 19 20 18 51 -1 24 3 45 11 51 7 6 10 16 6 22 -3 5 -7 27 -8 48 -3
46 -19 69 -49 69 -12 0 -16 -3 -10 -8z"/>
<path d="M3470 3565 c0 -2 10 -10 23 -16 20 -11 21 -11 8 4 -13 16 -31 23 -31
12z"/>
<path d="M3560 3525 c-13 -35 -13 -35 10 -35 13 0 20 -7 20 -19 0 -33 15 -31
44 5 29 37 29 64 -1 64 -10 0 -28 3 -40 6 -18 5 -25 1 -33 -21z"/>
<path d="M2081 3494 c0 -11 3 -14 6 -6 3 7 2 16 -1 19 -3 4 -6 -2 -5 -13z"/>
<path d="M4245 3493 c-4 -11 5 -26 25 -45 l31 -28 -3 36 c-2 27 -9 39 -25 45
-15 6 -23 3 -28 -8z"/>
<path d="M3726 3485 c-10 -11 -13 -28 -10 -57 3 -24 8 -45 10 -48 7 -6 63 61
63 75 0 6 -10 18 -24 27 -21 16 -25 16 -39 3z"/>
<path d="M1214 3455 c-8 -20 2 -32 49 -62 23 -15 36 -28 29 -31 -17 -5 -15
-32 3 -32 8 0 15 -6 16 -12 3 -61 19 -76 62 -60 18 7 46 12 61 12 23 0 25 -2
16 -19 -22 -42 31 -31 78 16 11 11 9 13 -12 13 -27 0 -44 16 -24 23 7 2 -11 7
-40 11 -29 4 -57 4 -63 1 -5 -4 -9 -3 -8 2 5 27 -7 41 -56 67 -30 16 -55 34
-55 42 0 15 -27 44 -41 44 -5 0 -12 -7 -15 -15z"/>
<path d="M2271 3456 c-8 -10 -9 -16 -1 -21 13 -8 30 3 30 21 0 18 -14 18 -29
0z"/>
<path d="M3810 3430 c0 -22 5 -40 10 -40 6 0 10 8 10 18 0 9 3 27 6 40 5 16 2
22 -10 22 -12 0 -16 -10 -16 -40z"/>
<path d="M4170 3455 c-10 -12 -15 -13 -28 -3 -12 10 -16 10 -19 1 -3 -9 -9
-10 -23 -1 -15 9 -25 9 -45 -2 l-25 -14 23 -25 c13 -14 34 -48 47 -74 20 -42
25 -46 34 -30 5 10 15 24 22 31 7 7 16 32 20 57 7 52 21 58 35 15 6 -16 15
-30 20 -30 13 0 11 15 -5 55 -16 37 -36 44 -56 20z"/>
<path d="M3880 3447 c0 -8 7 -31 15 -51 9 -20 13 -47 9 -61 -9 -37 5 -30 22
10 8 19 21 35 29 35 10 0 15 10 15 29 0 23 -5 30 -27 35 -16 4 -36 9 -45 12
-11 3 -18 0 -18 -9z"/>
<path d="M2070 3429 c0 -11 5 -17 10 -14 6 3 10 13 10 21 0 8 -4 14 -10 14 -5
0 -10 -9 -10 -21z"/>
<path d="M2207 3419 c-27 -27 -28 -28 -8 -38 22 -12 26 -9 36 37 8 38 8 38
-28 1z"/>
<path d="M3981 3423 c1 -16 4 -39 8 -53 6 -22 8 -23 17 -7 14 24 5 87 -12 87
-9 0 -14 -10 -13 -27z"/>
<path d="M2114 3416 c-10 -27 2 -43 14 -19 8 14 9 24 2 28 -6 3 -13 -1 -16 -9z"/>
<path d="M2623 3373 c9 -9 19 -14 23 -11 10 10 -6 28 -24 28 -15 0 -15 -1 1
-17z"/>
<path d="M2796 3372 c-2 -4 4 -8 15 -8 10 0 19 4 19 8 0 4 -6 8 -14 8 -8 0
-17 -4 -20 -8z"/>
<path d="M2809 3318 c-1 -7 -1 -19 0 -25 1 -7 -3 -13 -9 -13 -5 0 -10 -10 -9
-22 0 -16 2 -18 6 -8 4 8 14 21 24 27 10 8 15 21 12 33 -6 22 -22 27 -24 8z"/>
<path d="M1029 3310 c-19 -11 -19 -94 0 -113 6 -6 11 -31 11 -56 0 -26 3 -57
7 -70 5 -21 10 -22 42 -16 20 4 44 7 53 7 22 -1 60 39 64 66 4 21 -17 45 -42
48 -8 1 -14 -6 -14 -17 0 -12 -7 -19 -20 -19 -11 0 -20 7 -20 15 0 8 5 15 12
15 6 0 -3 13 -22 30 -24 21 -29 31 -19 35 15 5 18 53 5 73 -9 14 -35 15 -57 2z"/>
<path d="M2256 3304 c-4 -10 -1 -14 6 -12 15 5 23 28 10 28 -5 0 -13 -7 -16
-16z"/>
<path d="M2579 3301 c-18 -21 -23 -51 -9 -51 9 0 14 14 11 33 -3 18 17 5 23
-15 3 -15 9 -19 15 -13 13 13 3 52 -14 58 -6 3 -18 -2 -26 -12z"/>
<path d="M2975 3290 c-18 -8 -18 -9 5 -9 14 0 32 4 40 9 12 8 12 10 -5 9 -11
0 -29 -4 -40 -9z"/>
<path d="M2727 3269 c7 -7 15 -10 18 -7 3 3 -2 9 -12 12 -14 6 -15 5 -6 -5z"/>
<path d="M4595 3270 c-3 -5 -1 -10 4 -10 6 0 11 5 11 10 0 6 -2 10 -4 10 -3 0
-8 -4 -11 -10z"/>
<path d="M2255 3259 c-11 -4 -14 -8 -7 -8 14 -1 17 -68 2 -73 -5 -1 -7 -13 -3
-26 3 -15 11 -21 20 -18 8 3 23 6 33 6 18 0 37 34 31 54 -1 5 4 13 11 17 7 4
9 11 4 16 -4 4 -12 1 -16 -7 -32 -53 -36 -53 -43 3 -6 46 -7 47 -32 36z"/>
<path d="M2415 3260 c-16 -7 -17 -9 -3 -9 9 -1 24 -4 32 -7 12 -5 15 -2 10 10
-7 18 -10 18 -39 6z"/>
<path d="M2878 3263 c7 -3 16 -2 19 1 4 3 -2 6 -13 5 -11 0 -14 -3 -6 -6z"/>
<path d="M2082 3248 c-7 -7 -12 -19 -12 -27 0 -11 5 -8 16 7 18 25 15 39 -4
20z"/>
<path d="M2975 3250 c3 -5 10 -10 16 -10 5 0 9 5 9 10 0 6 -7 10 -16 10 -8 0
-12 -4 -9 -10z"/>
<path d="M3015 3250 c3 -5 11 -10 16 -10 6 0 7 5 4 10 -3 6 -11 10 -16 10 -6
0 -7 -4 -4 -10z"/>
<path d="M3090 3246 c0 -2 7 -7 16 -10 8 -3 12 -2 9 4 -6 10 -25 14 -25 6z"/>
<path d="M516 3195 c-9 -13 -21 -43 -27 -67 -13 -50 -4 -96 51 -243 4 -11 7
12 6 55 0 41 2 115 5 165 9 118 -1 142 -35 90z"/>
<path d="M1503 3194 c-18 -38 -4 -51 18 -17 22 33 24 43 7 43 -7 0 -18 -12
-25 -26z"/>
<path d="M1582 3185 c-18 -18 -20 -24 -9 -33 11 -9 18 -5 35 18 12 16 22 32
22 35 0 12 -27 1 -48 -20z"/>
<path d="M3096 3197 c-11 -8 -16 -19 -12 -25 4 -6 -2 -17 -14 -24 -11 -7 -20
-18 -20 -25 0 -7 -4 -13 -10 -13 -5 0 -10 17 -11 38 0 29 -2 33 -8 17 -5 -11
-7 -28 -5 -38 2 -10 -4 -21 -12 -24 -28 -11 16 -29 63 -27 55 4 61 8 40 32
-10 10 -17 23 -17 29 0 15 30 10 40 -6 4 -8 13 -10 20 -6 8 5 5 11 -9 22 -12
8 -19 19 -16 24 4 5 2 16 -2 24 -8 13 -12 13 -27 2z m-16 -102 c-7 -9 -15 -13
-17 -11 -7 7 7 26 19 26 6 0 6 -6 -2 -15z"/>
<path d="M1340 3180 c-6 -11 -16 -20 -23 -20 -17 0 -70 -97 -57 -105 19 -12
130 78 130 105 0 17 -18 40 -32 40 -4 0 -12 -9 -18 -20z"/>
<path d="M3052 3178 c-14 -14 -16 -28 -3 -28 5 0 11 9 14 20 6 23 5 24 -11 8z"/>
<path d="M2390 3173 c0 -5 4 -15 10 -23 11 -18 25 -7 17 15 -6 15 -27 21 -27
8z"/>
<path d="M2900 3170 c0 -5 7 -7 15 -4 8 4 15 1 15 -6 0 -6 5 -8 11 -4 8 4 7 9
-2 15 -19 12 -39 11 -39 -1z"/>
<path d="M4791 3166 c-7 -8 -15 -53 -18 -101 -3 -47 -9 -82 -13 -78 -4 4 -13
34 -20 65 -17 75 -24 86 -47 72 -12 -7 -20 -29 -24 -65 -4 -30 -18 -74 -33
-99 -21 -38 -26 -57 -26 -120 0 -81 20 -155 42 -155 7 0 17 17 21 40 5 22 13
48 18 57 5 10 9 24 9 32 0 19 38 27 48 10 5 -8 14 18 26 69 10 45 27 107 37
138 10 31 19 72 19 91 0 42 -21 66 -39 44z"/>
<path d="M905 3156 c-14 -10 -18 -25 -17 -62 3 -67 26 -114 52 -107 21 6 27
37 10 48 -8 5 -7 12 1 22 10 12 10 16 -1 23 -7 5 -14 26 -14 49 -1 45 -4 47
-31 27z"/>
<path d="M1985 3139 c-9 -28 1 -36 14 -10 7 12 7 22 2 26 -5 3 -13 -4 -16 -16z"/>
<path d="M2337 3133 c5 -12 2 -15 -8 -11 -8 3 -23 2 -34 -3 -19 -7 -19 -8 3
-8 12 -1 22 -5 22 -9 0 -11 -48 -13 -55 -2 -3 6 -11 10 -16 10 -6 0 -7 -5 -4
-11 4 -6 -2 -13 -14 -16 -11 -3 -18 -9 -15 -14 6 -11 44 -12 44 -1 0 12 58 14
65 2 3 -5 19 -10 36 -10 19 0 29 -5 29 -15 0 -19 10 -19 35 -2 30 21 67 27 82
15 9 -7 13 -7 13 1 0 6 7 11 15 11 8 0 15 5 15 10 0 12 -101 2 -110 -10 -19
-27 -60 -8 -57 26 2 13 -3 18 -16 16 -15 -3 -17 1 -12 17 4 15 2 21 -9 21 -10
0 -13 -6 -9 -17z m31 -52 c3 -8 -1 -12 -9 -9 -7 2 -15 10 -17 17 -3 8 1 12 9
9 7 -2 15 -10 17 -17z"/>
<path d="M3185 3140 c3 -5 8 -10 11 -10 2 0 4 5 4 10 0 6 -5 10 -11 10 -5 0
-7 -4 -4 -10z"/>
<path d="M618 3108 c-56 -86 -41 -281 24 -314 23 -12 26 -19 22 -42 -7 -33 21
-135 40 -151 11 -9 15 -6 20 13 8 34 9 182 1 196 -4 6 -2 16 4 23 7 9 3 38
-14 96 -13 46 -21 89 -19 96 3 6 -2 18 -11 25 -8 7 -15 21 -15 30 0 51 -28 65
-52 28z"/>
<path d="M3500 3116 c0 -9 5 -16 10 -16 6 0 10 4 10 9 0 6 -4 13 -10 16 -5 3
-10 -1 -10 -9z"/>
<path d="M1653 3100 c-11 -16 -10 -18 1 -14 15 6 30 34 18 34 -4 0 -13 -9 -19
-20z"/>
<path d="M2767 3091 c-4 -17 -12 -31 -18 -31 -8 0 -7 5 2 17 12 15 12 16 -3
10 -9 -3 -19 -3 -21 1 -2 4 -2 1 0 -7 5 -21 -17 -41 -47 -41 -34 0 -47 -26
-17 -34 12 -3 24 -2 27 2 11 16 62 43 68 36 4 -4 1 -9 -6 -11 -6 -3 -9 -10 -5
-15 4 -7 -2 -9 -15 -6 -15 4 -22 2 -22 -8 0 -8 5 -14 11 -14 8 0 8 -5 -1 -15
-8 -9 -9 -15 -2 -15 6 0 14 5 17 10 3 6 11 10 17 10 6 0 3 -9 -7 -20 -10 -11
-27 -20 -37 -20 -15 0 -18 -5 -13 -21 5 -15 4 -19 -4 -15 -6 4 -11 16 -11 26
0 22 -16 36 -22 18 -2 -6 -12 -9 -21 -5 -11 4 -14 12 -10 23 5 13 3 15 -8 9
-28 -18 -48 -12 -54 17 -11 49 -21 38 -19 -23 0 -48 -2 -59 -14 -54 -7 3 -15
5 -17 5 -2 0 -1 9 2 20 3 11 1 20 -5 20 -18 0 -42 -12 -42 -21 0 -4 7 -6 16
-2 12 4 14 0 8 -21 -4 -16 -2 -26 5 -26 6 0 8 -6 5 -14 -3 -8 4 -21 16 -29 14
-10 19 -20 14 -28 -5 -9 -10 -6 -15 9 -5 12 -15 22 -23 22 -7 0 -17 10 -21 23
-4 12 -8 25 -10 30 -1 4 -3 10 -4 15 -1 4 -7 -4 -15 -18 -11 -22 -11 -27 7
-41 14 -12 16 -18 8 -24 -7 -4 -15 -5 -18 -2 -3 3 -19 -3 -35 -13 -23 -13 -37
-16 -54 -10 -28 11 -39 -2 -39 -43 0 -22 4 -27 17 -23 27 6 32 -11 6 -20 -12
-4 -24 -2 -25 3 -2 6 -10 19 -18 29 -14 18 -14 18 -15 -2 0 -28 -52 -76 -73
-68 -19 7 -24 -11 -6 -21 7 -5 6 -12 -3 -23 -7 -10 -19 -27 -26 -39 -10 -19
-10 -23 3 -23 17 0 19 -9 6 -29 -5 -7 -13 -11 -19 -7 -14 8 -25 -25 -12 -38 8
-8 13 -7 19 3 5 7 14 11 20 7 6 -4 3 -14 -11 -28 -14 -14 -23 -18 -26 -10 -2
7 -8 12 -13 12 -10 0 10 -40 24 -51 5 -3 8 -10 7 -15 -3 -19 29 -14 40 5 12
24 35 29 27 7 -8 -20 18 -40 43 -33 15 4 20 0 20 -13 0 -22 -23 -32 -51 -21
-16 5 -28 2 -45 -16 -25 -25 -49 -30 -59 -12 -4 6 0 9 10 7 13 -2 19 5 22 25
4 31 -16 38 -24 7 -3 -11 -10 -20 -17 -20 -6 0 -17 -9 -24 -20 -7 -11 -9 -20
-5 -20 5 0 8 -13 8 -29 0 -26 -2 -28 -25 -18 -14 6 -38 22 -54 35 -16 12 -33
21 -39 19 -36 -12 23 -181 70 -202 13 -5 27 -22 33 -38 5 -16 14 -26 20 -22 5
3 24 -10 40 -29 17 -19 41 -38 52 -42 12 -3 33 -17 47 -30 14 -13 32 -24 39
-24 7 0 15 -7 18 -15 4 -8 12 -15 18 -15 15 0 86 -62 86 -75 0 -5 20 -27 44
-49 45 -42 76 -92 76 -122 0 -10 3 -14 7 -10 11 11 33 -83 38 -168 5 -68 3
-78 -10 -72 -8 3 -15 1 -15 -4 0 -6 -9 -10 -20 -10 -19 0 -58 -17 -70 -31 -3
-3 -13 -8 -22 -12 -10 -3 -18 -15 -18 -26 0 -18 -30 -35 -58 -32 -6 1 -17 -10
-24 -24 -8 -19 -14 -22 -20 -13 -7 9 -11 10 -14 2 -3 -7 -13 -10 -22 -7 -10 2
-26 -5 -36 -16 -13 -14 -31 -21 -58 -21 -21 0 -38 -5 -38 -11 0 -6 -9 -9 -19
-6 -13 3 -22 -3 -31 -22 -11 -24 -13 -24 -19 -7 -7 17 -8 18 -14 3 -6 -17 -37
-24 -37 -9 0 11 -61 3 -76 -10 -8 -5 -14 -3 -17 7 -4 8 -13 12 -22 9 -13 -5
-15 0 -9 34 4 25 2 42 -5 46 -6 4 -8 13 -4 19 13 21 12 39 -2 53 -20 20 -33
17 -61 -13 -21 -23 -23 -24 -15 -6 6 12 16 25 21 28 23 14 7 25 -40 25 -38 0
-52 4 -60 19 -19 36 -48 35 -95 -3 -58 -48 -71 -46 -15 3 l44 38 -36 13 c-27
10 -35 19 -35 37 0 35 20 38 72 12 44 -22 46 -22 63 -5 13 14 14 20 4 23 -7 3
-19 18 -27 34 -9 16 -22 29 -29 29 -8 0 -17 7 -20 16 -5 13 -15 15 -41 11 -34
-6 -57 6 -33 16 7 3 1 6 -14 6 -16 1 -28 5 -28 9 0 4 -12 13 -27 19 -40 18
-64 34 -100 70 -18 17 -35 28 -38 23 -3 -5 -26 -12 -50 -16 -25 -3 -45 -10
-45 -15 0 -9 7 -11 40 -13 8 -1 15 -8 15 -16 0 -31 25 -60 53 -60 24 -1 25 -2
11 -13 -15 -11 -15 -16 -3 -40 9 -16 23 -27 36 -27 17 0 18 -3 8 -15 -10 -11
-6 -23 21 -60 21 -29 39 -45 49 -42 8 3 24 8 35 12 12 4 9 0 -7 -11 -16 -10
-28 -22 -28 -26 0 -9 44 -76 70 -107 20 -23 21 -23 36 -5 13 17 13 17 3 -7 -9
-22 -8 -30 7 -47 11 -11 30 -35 44 -53 14 -19 64 -73 112 -121 49 -49 88 -97
90 -110 2 -18 9 -23 30 -23 15 0 33 -6 40 -13 11 -11 9 -16 -9 -30 -27 -20
-24 -47 9 -92 17 -24 24 -28 26 -16 2 9 8 16 13 16 5 0 8 8 7 17 -1 10 2 37 7
61 8 47 30 68 83 78 28 6 32 4 32 -15 0 -27 12 -27 28 0 11 17 20 20 46 15 23
-5 37 -2 46 9 7 8 21 15 31 15 11 0 19 5 19 11 0 6 6 9 14 6 8 -3 17 -1 19 6
2 7 8 9 12 5 4 -4 2 -14 -5 -23 -10 -12 -10 -18 0 -30 7 -8 19 -15 27 -15 10
0 12 -6 7 -22 -6 -21 -5 -22 12 -8 10 8 29 22 40 33 21 18 22 18 26 -8 3 -14
1 -28 -4 -31 -6 -4 -5 -9 2 -14 9 -6 9 -12 -1 -29 -20 -30 -29 -26 -29 14 0
27 -3 33 -16 28 -19 -7 -33 -41 -27 -64 3 -10 11 -15 17 -13 7 3 24 0 38 -5
23 -8 29 -6 42 14 9 13 16 32 16 42 1 14 6 12 25 -12 24 -28 25 -29 25 -7 0
12 6 22 14 22 9 0 17 15 21 40 8 50 21 51 34 3 14 -48 14 -83 1 -83 -5 0 -10
14 -10 30 0 35 -15 40 -24 8 -9 -35 -7 -64 6 -108 13 -40 28 -54 28 -25 0 8 9
15 20 15 24 0 37 -42 22 -73 l-11 -22 0 23 c-1 30 -15 28 -31 -5 l-13 -28 -8
25 c-4 16 -7 19 -8 8 -1 -10 -5 -18 -11 -18 -12 0 -13 -37 -1 -44 7 -5 -3
-103 -12 -113 -3 -2 -8 28 -11 68 -8 74 -13 79 -33 26 l-11 -32 -8 34 c-6 29
-8 31 -17 15 -5 -11 -19 -26 -30 -36 -16 -12 -22 -31 -25 -81 -4 -61 -3 -64
19 -70 31 -9 375 -9 472 -1 69 6 76 9 65 23 -10 13 -10 14 2 3 8 -6 24 -12 37
-12 34 0 184 59 207 81 18 16 18 21 6 45 -16 28 -90 92 -90 76 0 -5 7 -15 15
-22 17 -14 20 -40 5 -40 -5 0 -13 8 -18 17 -6 9 -20 17 -32 18 -18 2 -21 -2
-17 -23 3 -18 0 -26 -13 -29 -10 -3 -21 -12 -24 -20 -3 -8 -10 -11 -16 -8 -6
3 -10 -4 -10 -17 0 -18 -2 -20 -10 -8 -5 8 -10 26 -10 39 0 17 -4 22 -15 17
-9 -3 -18 1 -22 9 -5 14 -7 13 -18 -1 -7 -11 -19 -15 -29 -11 -11 4 -19 1 -23
-10 -6 -14 -8 -14 -20 3 -12 16 -13 16 -13 -9 0 -15 -4 -27 -10 -27 -5 0 -10
-10 -10 -21 0 -17 -5 -20 -21 -16 -30 8 -49 -2 -50 -27 0 -11 -3 -16 -5 -9 -3
7 -12 9 -21 6 -13 -5 -15 -1 -8 28 12 53 11 149 -1 157 -6 4 -15 18 -19 31 -6
19 -4 23 7 19 11 -5 13 1 10 23 -3 17 0 29 7 29 6 0 11 -5 11 -12 0 -6 2 -9 4
-7 2 2 1 24 -4 49 -5 25 -5 61 0 80 4 19 8 29 9 23 2 -20 21 -15 21 5 0 9 6
25 14 34 12 16 13 16 26 -2 10 -15 16 -16 22 -7 6 9 8 9 8 -1 0 -19 -28 -26
-47 -11 -15 13 -16 11 -10 -11 4 -14 7 -29 7 -34 0 -4 7 -6 15 -2 12 4 15 -3
15 -34 0 -22 5 -40 10 -40 6 0 10 13 10 29 0 17 5 33 10 36 6 4 8 16 4 28 -6
19 -5 20 9 9 13 -11 19 -10 36 7 11 11 18 27 15 36 -4 8 -1 15 5 15 21 0 61
-48 68 -80 3 -20 10 -29 18 -26 7 2 21 -4 31 -15 24 -27 27 -18 7 27 -16 37
-18 45 -21 71 -1 6 -10 14 -19 17 -19 6 -45 51 -35 61 3 3 16 5 28 5 13 0 25
4 29 10 9 15 34 0 37 -23 4 -30 48 -37 48 -8 0 26 17 26 49 2 21 -16 22 -20
10 -39 -8 -12 -20 -20 -26 -17 -7 2 -13 0 -13 -4 0 -17 23 -17 67 -3 35 12 41
17 32 28 -7 8 -9 17 -6 20 9 9 27 -5 27 -22 0 -8 5 -14 11 -14 14 0 39 -25 39
-39 0 -6 -6 -11 -14 -11 -7 0 -16 -8 -19 -19 -4 -18 10 -36 43 -56 13 -8 13
-6 1 8 -12 15 -11 17 5 17 27 0 48 -16 39 -29 -4 -7 -1 -18 5 -26 10 -12 10
-15 0 -15 -7 0 -10 -7 -6 -16 4 -10 1 -14 -6 -11 -7 2 -12 12 -10 23 2 13 -7
23 -28 32 -38 17 -56 8 -38 -21 8 -12 19 -35 26 -51 12 -27 11 -28 -8 -23 -14
4 -20 0 -20 -11 -1 -15 -2 -15 -14 0 -7 10 -19 18 -26 18 -7 0 -28 9 -46 21
-19 11 -34 16 -34 10 0 -6 6 -11 14 -11 16 0 76 -68 76 -87 0 -11 -5 -10 -25
3 -14 9 -25 13 -25 10 0 -10 40 -86 45 -86 3 0 25 16 50 35 25 19 52 38 59 42
7 5 21 23 30 41 9 18 46 65 81 103 63 68 110 151 175 309 13 30 38 88 57 128
18 40 33 76 33 80 0 4 19 35 43 70 32 49 61 76 127 121 48 33 101 78 123 107
51 66 97 146 90 157 -3 5 -26 18 -52 29 -25 11 -41 22 -34 25 6 2 34 -7 62
-21 l50 -26 26 26 c15 14 25 27 23 28 -41 28 -97 51 -153 62 l-70 13 65 -3
c64 -3 114 -20 157 -52 21 -15 23 -15 42 17 15 24 17 36 9 46 -15 18 -28 16
-29 -4 0 -13 -3 -11 -11 7 -6 14 -12 29 -12 33 -1 5 -12 17 -26 27 -14 11 -21
20 -17 20 14 0 71 -32 95 -53 l23 -21 27 34 c15 19 55 66 89 104 36 40 79 103
103 150 22 45 56 110 75 145 19 36 31 69 27 75 -4 6 -5 34 -3 62 1 30 -2 55
-8 58 -13 8 -111 -90 -111 -111 0 -7 -5 -13 -10 -13 -17 0 0 51 38 114 27 44
36 68 35 98 -1 22 -4 42 -7 45 -2 3 -22 7 -44 10 -33 4 -42 2 -55 -17 -15 -22
-60 -50 -79 -50 -7 0 -7 4 -1 13 6 6 9 25 9 40 -1 22 -8 32 -32 42 -18 7 -37
9 -45 5 -8 -5 -24 -1 -41 11 -15 11 -28 16 -28 10 0 -6 -11 -11 -25 -11 -22 0
-24 3 -16 19 13 23 -2 38 -47 47 -25 5 -32 3 -32 -10 0 -9 -5 -16 -11 -16 -7
0 -9 -10 -5 -25 4 -16 2 -25 -6 -25 -6 0 -3 -7 8 -15 18 -13 17 -14 -18 -15
-46 0 -55 -13 -27 -39 21 -19 21 -21 4 -27 -17 -7 -17 -8 1 -21 10 -7 24 -13
32 -13 18 0 47 -30 47 -49 0 -10 8 -15 20 -13 53 9 103 20 128 31 16 6 30 11
32 11 9 0 -5 -93 -20 -124 -13 -28 -15 -39 -6 -50 9 -11 7 -22 -8 -50 -12 -20
-17 -36 -13 -36 4 0 -1 -7 -11 -14 -17 -13 -16 -15 15 -21 18 -3 41 -9 51 -11
10 -3 17 0 17 8 0 8 14 22 30 31 17 10 30 22 30 28 0 5 5 9 10 9 6 0 10 -13
10 -30 0 -16 -4 -30 -10 -30 -5 0 -10 -7 -10 -15 0 -8 -5 -15 -11 -15 -5 0 -7
-5 -4 -11 4 -6 -2 -19 -14 -30 -15 -14 -19 -25 -12 -37 4 -9 6 -23 4 -30 -3
-7 0 -18 5 -25 8 -9 -3 -33 -37 -85 -51 -77 -72 -88 -39 -20 12 26 16 44 10
50 -16 16 -62 16 -71 1 -12 -22 -34 10 -38 55 -4 40 -18 62 -39 62 -9 0 -14
12 -14 35 0 26 -7 43 -27 61 -23 21 -25 27 -13 34 11 7 12 10 2 10 -7 0 -10 5
-7 10 4 6 1 17 -5 25 -10 11 -10 15 -1 15 7 0 9 5 6 11 -4 6 -14 8 -22 4 -9
-3 -24 2 -33 10 -29 26 -31 1 -4 -29 20 -21 26 -38 26 -74 0 -26 7 -54 15 -63
11 -13 12 -26 4 -59 -12 -52 -20 -61 -49 -53 -24 6 -72 93 -72 131 0 11 -5 24
-11 27 -5 4 -8 12 -6 18 2 7 -2 20 -11 29 -11 14 -12 21 -3 32 9 11 7 15 -9
19 -23 6 -27 42 -5 54 23 14 -25 69 -51 58 -17 -7 -17 -9 -2 -12 9 -2 19 -11
22 -19 6 -17 -5 -19 -21 -3 -6 6 -13 7 -16 2 -13 -21 -9 -122 7 -175 15 -52
19 -58 44 -58 37 -1 62 -22 62 -54 0 -25 -2 -27 -30 -21 -26 6 -30 4 -30 -13
0 -29 -11 -53 -21 -47 -15 10 -57 -6 -63 -23 -24 -67 -25 -72 -4 -86 25 -18
40 -13 53 17 7 16 20 23 48 25 21 2 37 9 37 15 0 15 48 34 71 29 24 -5 36 -72
15 -84 -9 -5 -16 -15 -16 -23 0 -16 -71 -65 -94 -65 -12 0 -30 -27 -26 -39 4
-10 -25 -19 -31 -9 -18 29 -94 -22 -106 -70 -11 -44 51 -58 86 -20 13 13 32
21 51 20 24 0 33 6 45 29 9 16 22 29 30 29 8 0 15 5 15 10 0 6 7 10 15 10 8 0
15 -4 15 -10 0 -5 -4 -10 -10 -10 -5 0 -10 -4 -10 -10 0 -5 8 -10 17 -10 13 0
14 -3 5 -12 -7 -7 -12 -18 -12 -26 0 -7 -6 -20 -12 -27 -7 -8 -24 -30 -38 -49
-21 -30 -31 -35 -62 -36 -27 0 -40 -6 -48 -20 -6 -11 -17 -20 -25 -20 -8 0
-18 -7 -23 -16 -5 -9 -23 -17 -41 -19 -53 -4 -104 -44 -113 -90 -5 -21 -14
-43 -21 -47 -7 -5 -1 -8 16 -8 34 0 34 -5 -3 -42 -16 -16 -30 -35 -30 -43 0
-19 -36 -25 -72 -12 -24 9 -32 9 -35 0 -3 -7 -10 -13 -17 -13 -7 0 -19 -16
-26 -36 -8 -20 -23 -40 -33 -46 -14 -7 -16 -13 -8 -21 28 -28 -10 -39 -40 -11
-17 15 -21 15 -53 -4 -32 -19 -36 -19 -44 -5 -5 8 -15 14 -23 11 -8 -3 -20 1
-27 9 -16 15 -32 17 -32 4 0 -6 -15 -4 -34 4 -19 8 -41 12 -49 9 -9 -3 -17 3
-20 18 -5 18 -13 23 -34 22 -36 -2 -60 11 -103 56 -41 43 -75 57 -95 40 -9 -8
-15 -8 -20 0 -3 6 -10 8 -15 5 -11 -7 -33 22 -26 34 4 5 0 16 -8 23 -11 12
-12 24 -4 59 5 24 13 77 17 118 4 45 11 76 19 79 6 2 12 10 12 17 0 7 7 15 15
19 8 3 15 13 15 23 0 19 41 63 57 63 6 0 24 15 41 33 55 57 90 87 114 97 13 5
30 14 38 20 8 5 36 19 62 30 48 21 90 56 101 84 4 9 15 16 25 16 22 0 66 72
69 111 0 15 6 36 12 47 16 31 14 92 -4 98 -8 4 -15 15 -15 25 0 10 -5 19 -11
19 -7 0 -9 -12 -5 -33 5 -29 3 -35 -25 -51 -34 -20 -34 -20 -43 12 -5 14 -3
22 4 22 6 0 8 5 5 10 -9 14 8 12 25 -2 25 -23 -12 24 -44 55 l-28 27 -22 -24
c-16 -19 -25 -23 -36 -15 -13 8 -12 12 8 29 30 25 39 86 14 98 -9 5 -23 7 -30
5 -10 -4 -10 1 -1 21 7 14 15 26 18 26 12 -1 41 -28 41 -39 0 -6 5 -11 10 -11
13 0 13 17 -1 26 -6 3 -8 16 -5 28 4 18 1 22 -16 22 -14 -1 -31 12 -49 39 -29
42 -29 67 0 41 21 -19 37 -20 45 -3 3 6 5 -3 3 -20 -4 -35 2 -40 21 -21 9 9
12 6 12 -14 0 -15 5 -30 10 -33 6 -3 10 0 10 8 0 8 7 17 15 21 12 4 13 2 6
-12 -7 -14 -4 -17 17 -19 48 -4 54 3 33 41 -17 29 -17 35 -5 40 8 3 14 16 14
28 0 13 4 30 9 38 7 10 4 18 -9 27 -11 8 -17 20 -14 27 4 10 -3 12 -23 10 -15
-2 -22 -1 -15 2 17 8 15 22 -5 28 -10 3 -19 16 -19 29 -1 18 3 23 25 22 16 0
25 5 23 13 -1 6 2 12 8 12 9 0 7 42 -5 73 -4 9 -12 17 -17 17 -6 0 -8 12 -4
30 4 22 1 32 -9 36 -8 4 -15 11 -15 16 0 6 7 4 16 -3 14 -12 16 -11 13 6 -3
11 -13 21 -24 23 -16 2 -20 -3 -22 -25 -1 -15 6 -37 15 -47 16 -18 16 -19 0
-13 -17 6 -28 -11 -28 -41 1 -14 5 -12 20 7 l20 23 0 -26 c0 -15 4 -25 9 -22
5 4 7 -3 4 -14 -3 -11 -10 -17 -15 -14 -6 4 -8 -2 -3 -15 5 -18 2 -21 -20 -21
-24 0 -26 3 -24 33 3 49 0 67 -12 67 -6 0 -9 -6 -6 -14 5 -14 -10 -36 -25 -36
-4 0 -8 9 -8 21 0 12 -8 23 -20 26 -23 6 -27 23 -5 23 21 0 19 20 -2 21 -10 1
-22 1 -27 0 -4 -1 -14 4 -22 10 -8 7 -18 9 -21 5 -4 -4 -1 -11 7 -16 8 -5 11
-12 7 -16 -4 -4 -2 -14 5 -21 9 -11 9 -17 -3 -24 -22 -14 -37 -11 -49 10 -13
26 -13 31 5 31 18 0 19 11 3 29 -10 11 -10 13 0 7 6 -4 12 -2 12 3 0 6 -9 11
-21 11 -13 0 -20 -6 -18 -17 1 -10 1 -29 0 -42 -1 -19 -4 -21 -15 -12 -8 6
-20 10 -27 9 -15 -4 -19 53 -4 64 5 4 6 10 2 14 -3 4 -12 2 -19 -3 -7 -6 -33
-10 -56 -9 -24 0 -48 -4 -54 -11 -7 -9 -14 -9 -29 0 -15 9 -21 8 -32 -7 -10
-13 -16 -16 -21 -7 -7 10 47 41 72 41 5 0 15 7 22 15 10 12 10 18 0 30 -17 21
-30 19 -30 -5 0 -12 -7 -20 -16 -20 -11 0 -14 5 -10 16 5 12 2 15 -11 10 -9
-4 -20 -2 -23 4 -4 7 -10 -2 -13 -19z m29 -28 c-10 -10 -19 5 -10 18 6 11 8
11 12 0 2 -7 1 -15 -2 -18z m138 -75 c10 17 26 15 26 -3 0 -8 -9 -15 -19 -15
-11 0 -23 -5 -26 -10 -4 -7 -13 -7 -26 0 -25 14 -24 23 4 35 17 8 23 7 28 -4
4 -11 8 -12 13 -3z m-116 -1 c16 -19 3 -57 -18 -57 -10 0 -26 -3 -34 -6 -13
-5 -15 -2 -9 12 12 32 29 44 42 31 8 -8 11 -8 11 1 0 6 -8 16 -17 21 -16 9
-16 10 -2 11 9 0 21 -6 27 -13z m42 3 c0 -5 -4 -10 -9 -10 -6 0 -13 5 -16 10
-3 6 1 10 9 10 9 0 16 -4 16 -10z m180 -75 c0 -8 -5 -15 -11 -15 -6 0 -9 -10
-7 -22 2 -13 9 -22 17 -20 13 3 30 -14 31 -30 0 -4 -21 0 -47 9 -26 9 -42 18
-35 21 6 2 12 14 12 26 0 22 17 46 32 46 4 0 8 -7 8 -15z m-54 -20 c1 -8 -2
-15 -7 -15 -5 0 -9 10 -9 22 0 23 12 17 16 -7z m-155 -8 c-1 -12 -15 -9 -19 4
-3 6 1 10 8 8 6 -3 11 -8 11 -12z m123 4 c7 -10 -49 -33 -58 -24 -9 9 -7 25 2
19 4 -2 14 -1 22 5 19 11 27 11 34 0z m166 -21 c0 -5 -5 -10 -11 -10 -5 0 -7
5 -4 10 3 6 8 10 11 10 2 0 4 -4 4 -10z m-156 -55 c-7 -17 -20 -20 -29 -6 -3
5 3 12 12 14 10 3 19 5 20 6 1 0 0 -6 -3 -14z m-120 -11 c3 -8 2 -12 -4 -9 -6
3 -10 10 -10 16 0 14 7 11 14 -7z m356 1 c9 -11 16 -13 24 -5 16 16 21 12 22
-15 2 -22 -1 -25 -20 -19 -18 6 -56 40 -56 51 0 9 19 1 30 -12z m-730 -3 c0
-4 -5 -13 -12 -20 -9 -9 -7 -12 13 -13 l24 0 -22 -9 c-23 -9 -32 -30 -13 -30
6 0 10 -4 10 -10 0 -5 -11 -10 -25 -10 -28 0 -34 26 -12 49 10 11 9 13 -5 8
-22 -8 -23 -3 -1 23 17 20 43 27 43 12z m-100 -11 c0 -6 -9 -9 -19 -8 -11 0
-17 5 -15 9 7 11 34 10 34 -1z m597 -27 c14 -14 14 -17 0 -31 -14 -14 -17 -13
-32 11 -11 16 -24 25 -32 21 -24 -9 -36 6 -16 20 19 14 54 6 80 -21z m-147 6
c-8 -5 -17 -7 -19 -4 -3 3 1 9 9 14 8 5 17 7 19 4 3 -3 -1 -9 -9 -14z m-223
-23 c-6 -12 -13 -24 -15 -26 -1 -3 -8 4 -16 14 -12 17 -11 21 8 31 29 15 38 8
23 -19z m-74 -12 c-5 -13 -23 -22 -23 -11 0 15 14 35 21 31 4 -3 6 -12 2 -20z
m291 -19 c-3 -9 -10 -16 -15 -16 -14 0 -11 28 4 33 16 6 19 3 11 -17z m216 8
c0 -17 -22 -14 -28 4 -2 7 3 12 12 12 9 0 16 -7 16 -16z m-160 -20 c0 -8 -4
-12 -10 -9 -5 3 -10 10 -10 16 0 5 5 9 10 9 6 0 10 -7 10 -16z m-330 -10 c0
-10 6 -14 15 -10 8 3 19 -3 25 -12 9 -14 10 -14 5 6 -8 27 11 30 20 2 6 -20
35 -28 35 -10 0 6 5 10 10 10 6 0 10 -7 10 -15 0 -12 4 -13 19 -6 21 12 32 5
24 -15 -3 -8 0 -14 6 -14 6 0 11 6 11 13 0 14 46 38 55 28 4 -3 12 -6 18 -6 7
0 11 -8 11 -18 -1 -9 2 -17 7 -17 5 0 13 -15 18 -32 5 -18 10 -25 10 -15 1 22
21 23 21 0 0 -23 39 -63 56 -56 10 4 14 -3 14 -25 0 -35 13 -46 55 -48 17 -1
35 -2 40 -3 14 -1 11 -66 -4 -84 -6 -8 -26 -17 -44 -20 -18 -3 -57 -13 -87
-22 -61 -19 -57 -18 -122 -9 -35 5 -48 12 -53 28 l-8 21 -4 -21 c-4 -19 -11
-22 -60 -23 -30 0 -64 -3 -74 -6 -10 -4 -19 -3 -19 2 0 4 -23 9 -50 10 -60 2
-110 22 -110 44 0 24 -29 44 -56 41 -19 -3 -24 1 -24 17 0 12 4 21 9 21 5 0
12 11 15 25 4 14 11 23 17 20 7 -5 6 -11 -2 -21 -6 -7 -8 -21 -5 -31 6 -15 10
-13 31 12 14 15 25 33 25 38 0 18 34 36 47 25 16 -13 18 24 3 53 -14 24 7 27
25 3 10 -15 12 -14 10 6 -1 12 -10 29 -19 36 -12 9 -16 19 -12 31 7 17 8 17
20 2 16 -23 46 -1 46 35 0 14 5 26 10 26 6 0 10 -7 10 -16z m380 6 c0 -5 -4
-10 -10 -10 -5 0 -10 5 -10 10 0 6 5 10 10 10 6 0 10 -4 10 -10z m-60 -62 c0
-23 -16 -23 -24 0 -3 9 -9 23 -12 30 -5 11 -3 11 15 0 12 -7 21 -21 21 -30z
m-433 -10 c-3 -8 -6 -5 -6 6 -1 11 2 17 5 13 3 -3 4 -12 1 -19z m1680 -12 c4
-29 -23 -54 -39 -38 -8 8 -9 12 -1 12 11 0 27 37 23 55 -1 6 2 6 6 2 5 -4 9
-18 11 -31z m-952 -46 c3 -5 1 -10 -4 -10 -6 0 -11 5 -11 10 0 6 2 10 4 10 3
0 8 -4 11 -10z m1305 -210 c0 -12 -40 -44 -47 -37 -12 13 16 57 32 51 8 -3 15
-9 15 -14z m-378 -402 c-9 -9 -15 -9 -24 0 -9 9 -7 12 12 12 19 0 21 -3 12
-12z m-21 -258 c32 -26 3 -27 -31 0 -19 15 -21 20 -9 20 9 0 27 -9 40 -20z
m-306 -241 c11 -17 -1 -21 -15 -4 -8 9 -8 15 -2 15 6 0 14 -5 17 -11z m1 -41
c4 -7 3 -8 -4 -4 -7 4 -12 1 -12 -9 0 -12 -5 -15 -16 -11 -12 4 -15 2 -10 -9
4 -13 2 -14 -14 -5 -22 12 -22 12 -14 34 7 19 59 22 70 4z m-2046 -61 c0 -2
-12 -14 -27 -28 l-28 -24 24 28 c23 25 31 32 31 24z m1190 -27 c0 -5 -7 -7
-15 -4 -8 4 -15 8 -15 10 0 2 7 4 15 4 8 0 15 -4 15 -10z m-500 -384 c0 -3 -4
-8 -10 -11 -5 -3 -10 -1 -10 4 0 6 5 11 10 11 6 0 10 -2 10 -4z m247 -58 c-3
-8 -6 -5 -6 6 -1 11 2 17 5 13 3 -3 4 -12 1 -19z m263 12 c0 -5 -4 -10 -9 -10
-6 0 -13 5 -16 10 -3 6 1 10 9 10 9 0 16 -4 16 -10z m-902 -32 c-5 -16 -48
-24 -48 -9 0 8 17 16 43 20 5 0 7 -5 5 -11z m729 -30 c-3 -8 -6 -5 -6 6 -1 11
2 17 5 13 3 -3 4 -12 1 -19z m618 2 c3 -5 2 -10 -4 -10 -5 0 -13 5 -16 10 -3
6 -2 10 4 10 5 0 13 -4 16 -10z m-768 -32 c-3 -8 -6 -5 -6 6 -1 11 2 17 5 13
3 -3 4 -12 1 -19z m102 -142 c-13 -15 -19 -3 -12 24 6 22 7 22 14 4 3 -10 3
-23 -2 -28z m-68 -91 c5 4 9 -1 9 -9 0 -9 -3 -16 -7 -16 -9 0 -33 -49 -33 -67
0 -7 -5 -13 -11 -13 -13 0 -2 95 15 122 10 18 11 18 14 -2 2 -11 8 -18 13 -15z
m73 24 c12 18 24 12 19 -9 -3 -11 0 -20 6 -20 13 0 2 -60 -15 -77 -9 -10 -15
-6 -28 20 -9 18 -22 40 -29 49 -9 14 -8 20 8 32 13 9 22 11 26 4 4 -7 9 -6 13
1z m-163 -82 c-8 -8 -11 -4 -11 14 0 33 14 47 18 19 2 -12 -1 -27 -7 -33z
m-68 16 c2 -5 1 -19 -3 -33 -6 -24 -7 -24 -11 8 -5 29 4 44 14 25z m37 -20 c0
-24 -16 -48 -23 -36 -8 13 3 53 14 53 5 0 9 -8 9 -17z"/>
<path d="M2760 2636 c0 -9 5 -16 10 -16 6 0 10 4 10 9 0 6 -4 13 -10 16 -5 3
-10 -1 -10 -9z"/>
<path d="M2510 2628 c0 -7 5 -20 10 -28 8 -12 10 -9 10 13 0 15 -4 27 -10 27
-5 0 -10 -6 -10 -12z"/>
<path d="M2678 574 c-3 -5 0 -25 8 -44 l12 -35 1 30 c1 32 -13 63 -21 49z"/>
<path d="M1420 3069 c0 -5 -6 -9 -14 -9 -13 0 -21 -16 -36 -72 -5 -19 -4 -28
4 -28 19 1 46 26 46 44 0 9 5 16 10 16 6 0 10 9 10 19 0 11 6 21 12 23 7 3 2
7 -10 10 -12 4 -22 2 -22 -3z"/>
<path d="M2692 3064 c-10 -12 -10 -14 2 -14 17 0 30 16 19 23 -5 3 -14 -1 -21
-9z"/>
<path d="M1596 3029 c-14 -28 -14 -30 0 -18 21 17 37 49 25 49 -5 0 -16 -14
-25 -31z"/>
<path d="M2574 3045 c-6 -16 9 -34 29 -35 13 0 8 27 -8 40 -12 10 -16 9 -21
-5z"/>
<path d="M1487 3036 c-15 -7 -24 -15 -21 -19 4 -4 0 -15 -8 -24 -14 -16 -14
-20 -2 -31 12 -11 17 -7 35 22 11 19 26 37 34 40 18 7 20 26 3 25 -7 0 -25 -6
-41 -13z"/>
<path d="M1990 3014 c-8 -23 -9 -39 -2 -46 9 -9 32 38 32 68 0 27 -19 13 -30
-22z"/>
<path d="M2321 3034 c0 -11 3 -14 6 -6 3 7 2 16 -1 19 -3 4 -6 -2 -5 -13z"/>
<path d="M2360 3040 c0 -5 5 -10 10 -10 6 0 10 5 10 10 0 6 -4 10 -10 10 -5 0
-10 -4 -10 -10z"/>
<path d="M2997 3036 c-3 -8 0 -17 7 -19 10 -4 12 1 9 14 -6 23 -9 24 -16 5z"/>
<path d="M2090 3023 c0 -10 4 -24 9 -32 5 -7 5 -27 2 -45 -10 -46 -3 -64 30
-71 25 -6 27 -9 18 -26 -5 -11 -9 -27 -8 -37 3 -29 -1 -42 -11 -42 -5 0 -10 7
-10 16 0 8 -4 12 -10 9 -18 -11 -10 -42 14 -53 19 -8 27 -8 36 3 8 10 8 15 -2
19 -7 3 2 4 20 1 17 -2 32 0 32 5 0 6 -6 10 -14 10 -24 0 -36 23 -21 43 12 17
50 14 39 -4 -3 -5 2 -9 10 -9 9 0 16 7 16 15 0 8 -5 15 -11 15 -8 0 -9 4 0 13
6 8 8 17 5 20 -4 3 1 13 10 22 16 17 14 35 -5 35 -22 0 -40 29 -33 55 6 26 -4
33 -23 14 -7 -7 -19 -3 -41 15 -35 30 -52 33 -52 9z m84 -65 c1 -7 5 -18 9
-25 9 -15 -4 -23 -44 -28 -24 -3 -29 -1 -20 8 6 6 11 19 11 29 0 9 8 21 17 27
20 11 24 9 27 -11z"/>
<path d="M822 3017 c-17 -20 -25 -96 -15 -142 7 -33 13 -41 35 -43 26 -3 26
-3 22 65 -4 102 -8 126 -20 130 -6 2 -16 -3 -22 -10z"/>
<path d="M1905 3020 c-3 -5 1 -10 9 -10 9 0 16 5 16 10 0 6 -4 10 -9 10 -6 0
-13 -4 -16 -10z"/>
<path d="M2357 3004 c-3 -3 -3 -13 0 -21 5 -12 7 -12 14 -1 15 23 4 40 -14 22z"/>
<path d="M2498 3002 c-10 -2 -18 -8 -18 -13 0 -13 27 -11 35 2 9 13 4 16 -17
11z"/>
<path d="M1210 2990 c0 -5 6 -10 14 -10 8 0 18 5 21 10 3 6 -3 10 -14 10 -12
0 -21 -4 -21 -10z"/>
<path d="M2400 2990 c0 -5 4 -10 9 -10 5 0 11 -10 15 -22 5 -18 8 -20 15 -9 6
9 5 21 -2 33 -13 19 -37 25 -37 8z"/>
<path d="M4465 2987 c-55 -31 -77 -57 -71 -81 3 -14 15 -26 28 -29 13 -2 30
-7 38 -11 27 -11 52 18 60 67 9 63 -8 80 -55 54z"/>
<path d="M1036 2981 c-9 -15 12 -51 29 -51 25 0 25 16 1 39 -15 14 -26 19 -30
12z"/>
<path d="M1565 2979 c-4 -6 -5 -12 -2 -15 2 -3 7 2 10 11 7 17 1 20 -8 4z"/>
<path d="M3406 2977 c3 -10 9 -15 12 -12 3 3 0 11 -7 18 -10 9 -11 8 -5 -6z"/>
<path d="M2037 2961 c-2 -10 2 -26 9 -35 7 -10 10 -24 7 -32 -3 -8 0 -14 6
-14 6 0 11 6 12 13 0 6 2 28 5 47 3 30 1 36 -15 37 -11 1 -21 -6 -24 -16z"/>
<path d="M2262 2968 c-17 -17 -15 -24 7 -25 14 -1 17 3 14 18 -6 22 -6 22 -21
7z"/>
<path d="M1140 2925 c-12 -14 -9 -63 5 -97 8 -21 33 -23 57 -4 20 15 14 26
-14 26 -11 0 -16 5 -13 11 9 13 -3 79 -14 79 -5 0 -14 -7 -21 -15z"/>
<path d="M2270 2909 c0 -21 46 -31 61 -13 9 11 8 14 -5 14 -9 0 -16 4 -16 9 0
6 -9 9 -20 8 -11 -1 -20 -8 -20 -18z"/>
<path d="M2360 2879 c0 -10 27 -19 34 -12 11 12 6 19 -14 19 -11 0 -20 -3 -20
-7z"/>
<path d="M4240 2872 c-24 -9 -42 -31 -38 -49 5 -27 33 -27 50 -1 17 27 10 57
-12 50z"/>
<path d="M3577 2856 c-3 -7 4 -22 17 -32 53 -45 57 -48 65 -36 4 7 12 8 21 2
12 -8 12 -10 -4 -10 -14 0 -17 -5 -12 -25 11 -45 63 -148 68 -134 4 12 7 12
21 0 11 -9 17 -10 17 -2 0 6 -5 11 -11 11 -6 0 -8 7 -5 16 8 20 -17 67 -49 92
-29 23 -32 32 -10 32 20 0 75 -53 75 -73 0 -16 37 -34 47 -23 3 3 -3 22 -13
43 -10 21 -19 43 -20 50 -1 6 -7 28 -14 47 -9 28 -17 36 -36 36 -14 0 -23 -4
-19 -9 9 -15 -14 -24 -29 -11 -11 8 -15 8 -19 -2 -3 -9 -13 -5 -34 15 -32 30
-48 34 -56 13z"/>
<path d="M2038 2836 c-3 -14 0 -27 6 -30 7 -3 6 -8 -4 -16 -11 -9 -12 -13 -2
-17 6 -2 12 -11 12 -19 0 -8 4 -14 9 -14 15 0 23 18 11 25 -5 3 -10 17 -10 31
0 14 4 22 10 19 6 -3 10 -1 10 5 0 8 9 10 25 6 18 -5 25 -2 25 9 0 9 -9 14
-22 14 -13 0 -33 2 -44 6 -17 5 -22 2 -26 -19z"/>
<path d="M546 2828 c-19 -94 -17 -124 20 -214 34 -86 54 -124 39 -76 -3 13 -2
28 3 35 10 13 -20 189 -38 219 -5 10 -7 24 -4 32 3 8 1 17 -5 20 -6 4 -13 -3
-15 -16z"/>
<path d="M3510 2840 c0 -5 5 -10 11 -10 5 0 7 5 4 10 -3 6 -8 10 -11 10 -2 0
-4 -4 -4 -10z"/>
<path d="M2251 2816 c2 -2 15 -9 29 -15 24 -11 24 -11 6 3 -16 13 -49 24 -35
12z"/>
<path d="M1498 2782 c-30 -33 -64 -99 -56 -107 8 -8 68 48 68 63 0 6 5 12 12
14 14 5 21 45 9 52 -4 3 -19 -7 -33 -22z"/>
<path d="M1314 2786 c-10 -8 -19 -23 -19 -33 0 -14 -8 -18 -35 -18 -31 0 -35
-4 -40 -30 -4 -20 -11 -29 -21 -26 -12 3 -90 9 -172 13 -15 0 -30 -2 -33 -5
-11 -11 8 -66 35 -104 30 -41 69 -57 169 -69 43 -5 52 -4 52 9 0 8 -6 18 -12
20 -10 4 -10 6 -1 6 10 1 9 11 -3 41 l-16 40 42 40 c23 22 48 40 56 40 17 0
48 65 39 80 -8 14 -18 12 -41 -4z"/>
<path d="M2213 2781 c15 -13 34 -20 42 -17 23 8 18 24 -7 23 -13 0 -32 3 -43
8 -13 5 -11 1 8 -14z"/>
<path d="M3835 2763 c9 -50 75 -146 91 -131 7 7 -44 130 -62 150 -27 28 -37
22 -29 -19z"/>
<path d="M1667 2719 c-15 -17 -27 -38 -27 -46 0 -7 -7 -27 -15 -43 -14 -26
-14 -29 0 -24 8 4 15 12 15 19 0 7 16 33 35 58 51 67 45 96 -8 36z"/>
<path d="M3990 2740 c0 -5 5 -10 10 -10 6 0 10 5 10 10 0 6 -4 10 -10 10 -5 0
-10 -4 -10 -10z"/>
<path d="M2060 2710 c-8 -5 -12 -12 -9 -15 8 -8 39 5 39 16 0 11 -11 11 -30
-1z"/>
<path d="M2125 2710 c-3 -5 -1 -10 4 -10 6 0 11 5 11 10 0 6 -2 10 -4 10 -3 0
-8 -4 -11 -10z"/>
<path d="M2210 2710 c0 -5 5 -10 10 -10 6 0 10 5 10 10 0 6 -4 10 -10 10 -5 0
-10 -4 -10 -10z"/>
<path d="M3385 2710 c3 -5 8 -10 11 -10 2 0 4 5 4 10 0 6 -5 10 -11 10 -5 0
-7 -4 -4 -10z"/>
<path d="M2165 2690 c-4 -6 -11 -8 -16 -5 -5 4 -9 -1 -9 -9 0 -14 3 -14 20 -4
11 7 20 16 20 20 0 11 -8 10 -15 -2z"/>
<path d="M3430 2682 c0 -26 47 -69 61 -55 8 8 7 18 -3 34 -23 42 -58 54 -58
21z"/>
<path d="M1893 2683 c-16 -6 -17 -39 -1 -49 12 -8 40 24 35 40 -4 12 -18 16
-34 9z"/>
<path d="M2103 2666 c-6 -8 -10 -16 -7 -19 3 -2 -7 -4 -21 -4 -44 0 -68 -44
-27 -48 15 -1 30 8 44 28 15 21 23 26 29 16 11 -19 22 -4 14 20 -7 24 -15 26
-32 7z"/>
<path d="M3354 2648 c-4 -5 -2 -14 3 -19 12 -12 53 0 53 16 0 15 -48 17 -56 3z"/>
<path d="M1670 2635 c-10 -12 -10 -15 3 -15 8 0 17 7 21 15 3 8 2 15 -3 15 -5
0 -14 -7 -21 -15z"/>
<path d="M1950 2620 c-9 -17 -7 -20 15 -20 15 0 25 6 25 14 0 23 -29 27 -40 6z"/>
<path d="M3795 2580 c4 -42 14 -55 54 -78 35 -20 45 -2 25 42 -10 20 -21 36
-25 36 -4 0 -9 9 -12 20 -3 12 -14 20 -26 20 -18 0 -20 -5 -16 -40z"/>
<path d="M841 2588 c-13 -36 16 -114 59 -160 14 -14 47 -49 73 -77 26 -28 51
-51 55 -51 4 0 15 -9 25 -21 13 -14 27 -19 50 -17 31 3 32 5 30 43 -2 22 -9
43 -18 48 -8 4 -15 18 -15 31 0 13 -7 30 -17 37 -9 8 -22 29 -30 46 -8 20 -23
35 -38 39 -14 3 -25 10 -25 14 0 12 -108 90 -125 90 -9 0 -19 -10 -24 -22z"/>
<path d="M1540 2590 c0 -5 -11 -12 -25 -16 -25 -6 -43 -43 -30 -63 8 -14 65
-14 65 -1 0 19 2 25 16 45 20 28 17 45 -6 45 -11 0 -20 -4 -20 -10z"/>
<path d="M3425 2591 c-8 -14 3 -31 20 -31 15 0 14 32 -2 37 -6 2 -14 -1 -18
-6z"/>
<path d="M2105 2580 c3 -5 8 -10 11 -10 2 0 4 5 4 10 0 6 -5 10 -11 10 -5 0
-7 -4 -4 -10z"/>
<path d="M1576 2534 c-5 -14 -4 -15 9 -4 17 14 19 20 6 20 -5 0 -12 -7 -15
-16z"/>
<path d="M3245 2540 c-4 -6 -3 -16 3 -22 6 -6 12 -6 17 2 4 6 3 16 -3 22 -6 6
-12 6 -17 -2z"/>
<path d="M3750 2542 c0 -12 22 -32 36 -32 7 0 10 8 7 20 -5 19 -43 29 -43 12z"/>
<path d="M1403 2533 c-17 -6 -16 -23 1 -23 8 0 16 7 20 15 6 15 1 17 -21 8z"/>
<path d="M1375 2479 c-11 -17 -2 -18 19 -3 17 12 17 14 4 14 -9 0 -20 -5 -23
-11z"/>
<path d="M2031 2474 c0 -11 3 -14 6 -6 3 7 2 16 -1 19 -3 4 -6 -2 -5 -13z"/>
<path d="M3248 2478 c-8 -19 -4 -37 15 -75 15 -33 25 -28 23 10 -1 17 -6 30
-11 27 -5 -3 -12 9 -15 25 -4 24 -7 26 -12 13z"/>
<path d="M3344 2472 c-20 -14 -42 -55 -37 -69 4 -11 9 -9 20 7 8 12 24 25 34
29 16 5 17 9 7 24 -7 9 -18 13 -24 9z"/>
<path d="M3935 2460 c-3 -5 4 -23 16 -40 17 -22 26 -27 35 -19 11 9 9 17 -8
40 -23 31 -33 35 -43 19z"/>
<path d="M1280 2426 c0 -9 -4 -16 -8 -16 -14 0 -30 -88 -18 -100 16 -16 43
-12 49 9 3 15 11 18 28 14 19 -4 21 -3 9 6 -10 8 -12 13 -4 19 6 4 13 17 16
30 5 17 2 22 -13 22 -10 0 -18 6 -16 12 1 7 -8 14 -20 16 -16 2 -23 -2 -23
-12z"/>
<path d="M1345 2430 c3 -5 8 -10 11 -10 2 0 4 5 4 10 0 6 -5 10 -11 10 -5 0
-7 -4 -4 -10z"/>
<path d="M2130 2425 c0 -8 5 -15 10 -15 6 0 10 7 10 15 0 8 -4 15 -10 15 -5 0
-10 -7 -10 -15z"/>
<path d="M1464 2416 c-28 -22 -6 -41 24 -20 12 8 22 19 22 25 0 14 -23 11 -46
-5z"/>
<path d="M3375 2420 c-3 -5 -1 -10 4 -10 6 0 11 5 11 10 0 6 -2 10 -4 10 -3 0
-8 -4 -11 -10z"/>
<path d="M3690 2410 c0 -5 5 -10 11 -10 5 0 7 5 4 10 -3 6 -8 10 -11 10 -2 0
-4 -4 -4 -10z"/>
<path d="M670 2407 c0 -15 30 -80 36 -74 3 3 -4 22 -15 44 -11 21 -20 34 -21
30z"/>
<path d="M808 2376 c-4 -22 10 -89 27 -128 11 -26 -9 -22 -41 7 -30 28 -44 32
-44 11 0 -13 58 -65 111 -98 14 -9 43 -35 65 -57 40 -43 156 -107 174 -96 16
10 12 20 -16 49 -15 14 -23 26 -20 26 10 0 -30 65 -66 110 -16 19 -33 40 -38
47 -6 7 -10 17 -10 22 0 13 -59 103 -78 119 -26 21 -59 15 -64 -12z"/>
<path d="M3445 2390 c3 -5 8 -10 11 -10 2 0 4 5 4 10 0 6 -5 10 -11 10 -5 0
-7 -4 -4 -10z"/>
<path d="M1518 2383 c6 -2 10 -9 7 -13 -3 -5 -13 -6 -22 -3 -11 4 -14 3 -9 -6
5 -7 0 -21 -10 -32 -16 -17 -16 -22 -4 -31 12 -8 11 -9 -3 -4 -24 8 -44 -3
-27 -14 10 -6 7 -15 -9 -39 -12 -17 -19 -35 -16 -41 9 -15 25 -2 25 21 0 10 5
19 10 19 6 0 10 -4 10 -10 0 -21 42 -9 75 23 48 45 52 93 10 118 -16 10 -34
18 -40 17 -5 0 -4 -2 3 -5z"/>
<path d="M1635 2210 c-3 -5 1 -10 9 -10 9 0 16 5 16 10 0 6 -4 10 -9 10 -6 0
-13 -4 -16 -10z"/>
<path d="M3770 2201 c0 -6 5 -13 10 -16 6 -3 10 1 10 9 0 9 -4 16 -10 16 -5 0
-10 -4 -10 -9z"/>
<path d="M1391 2177 c-6 -8 -9 -16 -7 -18 2 -2 6 -23 10 -46 5 -37 4 -43 -12
-43 -10 0 -41 -6 -70 -14 -44 -11 -54 -11 -63 0 -16 19 -59 18 -59 -1 0 -8 5
-15 10 -15 16 0 12 -40 -4 -46 -8 -3 -34 -31 -57 -61 -38 -50 -40 -56 -25 -71
14 -15 19 -13 52 23 26 29 37 36 43 26 7 -10 20 -11 65 -1 32 6 60 9 63 6 9
-8 6 -10 -70 -29 -37 -9 -80 -26 -97 -38 -33 -25 -30 -33 22 -70 l28 -21 36
21 c20 12 39 19 44 16 12 -8 68 15 74 31 12 32 96 0 96 -38 0 -14 37 -9 50 7
10 12 10 15 0 15 -7 0 -10 6 -7 14 6 14 -57 66 -80 66 -5 0 -21 14 -34 32 -13
17 -32 39 -41 47 -10 9 -18 24 -18 34 0 14 -4 16 -19 7 -27 -14 -30 -13 -28 9
0 10 7 17 13 14 7 -2 23 1 36 8 13 7 44 14 69 15 44 2 47 0 53 -27 5 -24 10
-29 36 -29 17 0 39 -9 50 -20 11 -11 31 -20 45 -20 37 0 34 47 -5 85 l-29 28
-12 -27 c-7 -14 -15 -26 -18 -26 -18 1 -29 19 -27 43 4 32 -15 51 -42 43 -15
-5 -21 -1 -26 20 -4 15 -13 36 -20 46 -11 15 -15 16 -25 5z m-217 -232 c-26
-34 -42 -47 -28 -22 9 15 46 57 51 57 2 0 -8 -16 -23 -35z m218 -87 c-21 -21
-32 -3 -15 22 16 22 18 23 21 6 2 -10 -1 -23 -6 -28z m-108 -2 l39 -13 -24
-16 c-43 -29 -94 -46 -109 -37 -11 7 -8 16 14 44 31 41 28 40 80 22z"/>
<path d="M1685 2038 c-23 -69 18 -110 73 -72 28 20 28 30 -4 59 -29 27 -62 33
-69 13z"/>
<path d="M3652 2037 c-33 -39 -20 -107 21 -107 45 0 54 21 48 103 -1 20 -53
24 -69 4z"/>
<path d="M1856 1997 c-3 -12 -6 -24 -6 -27 -2 -10 46 -16 58 -7 19 15 15 25
-17 41 -27 15 -29 14 -35 -7z"/>
<path d="M3482 1990 c-12 -12 -22 -25 -22 -29 0 -17 27 -30 59 -28 24 1 33 8
38 25 12 47 -36 68 -75 32z"/>
<path d="M1572 1782 c1 -31 6 -40 34 -54 27 -14 35 -14 43 -4 14 16 5 40 -24
72 -34 37 -55 32 -53 -14z"/>
<path d="M1346 1775 c-8 -8 -21 -15 -29 -15 -8 0 -22 -10 -33 -22 -18 -20 -18
-21 -1 -15 10 4 36 10 57 13 31 5 38 10 38 30 0 28 -10 30 -32 9z"/>
<path d="M1726 1754 c-3 -7 4 -20 14 -29 11 -10 17 -21 15 -25 -3 -4 2 -13 11
-20 12 -11 21 -10 52 7 38 21 55 20 83 -4 22 -18 69 -7 69 17 0 44 -75 66
-112 33 -17 -15 -20 -15 -43 7 -27 25 -81 34 -89 14z"/>
<path d="M3647 1756 c-4 -9 -12 -16 -20 -16 -7 0 -21 -14 -31 -31 -17 -29 -17
-31 0 -50 22 -25 30 -24 66 7 17 14 37 23 46 19 12 -4 12 -3 3 9 -8 10 -9 16
-1 21 14 9 13 45 -2 45 -7 0 -23 3 -34 6 -14 4 -23 0 -27 -10z"/>
<path d="M2051 1731 c-17 -11 -6 -47 18 -54 25 -6 42 24 26 46 -14 19 -24 21
-44 8z"/>
<path d="M3442 1718 c-6 -6 -12 -17 -12 -24 0 -7 -6 -14 -12 -17 -21 -7 3 -25
43 -32 26 -5 40 -2 51 9 9 8 24 12 37 9 29 -7 26 8 -6 38 -31 28 -81 37 -101
17z"/>
<path d="M3190 1704 c0 -8 5 -12 10 -9 6 3 10 10 10 16 0 5 -4 9 -10 9 -5 0
-10 -7 -10 -16z"/>
<path d="M3296 1707 c-16 -12 -16 -14 3 -32 30 -26 71 -29 71 -5 0 48 -35 66
-74 37z"/>
<path d="M3240 1551 c0 -5 5 -13 10 -16 6 -3 10 -2 10 4 0 5 -4 13 -10 16 -5
3 -10 2 -10 -4z"/>
<path d="M1809 1519 c-7 -38 -5 -46 19 -66 28 -23 57 -29 66 -14 9 14 -3 38
-22 45 -9 3 -27 13 -39 22 -13 9 -23 15 -24 13z"/>
<path d="M3340 1482 c0 -6 -10 -20 -22 -31 -20 -20 -21 -22 -4 -40 13 -14 24
-17 44 -12 36 10 39 41 7 71 -14 13 -25 18 -25 12z"/>
<path d="M3517 1458 c-31 -28 -42 -81 -21 -99 12 -10 13 -9 8 5 -5 12 0 16 21
16 17 0 24 4 19 11 -5 8 1 10 20 7 22 -5 26 -2 26 19 0 32 -17 63 -35 63 -8 0
-25 -10 -38 -22z"/>
<path d="M1973 1444 c-8 -21 13 -34 55 -34 35 0 37 2 22 31 -13 24 -68 26 -77
3z"/>
<path d="M2807 1440 c-3 -11 -1 -20 4 -20 5 0 9 2 9 4 0 2 3 11 6 20 3 9 2 16
-4 16 -5 0 -12 -9 -15 -20z"/>
<path d="M2175 1439 c-4 -6 -5 -13 -2 -16 7 -7 27 6 27 18 0 12 -17 12 -25 -2z"/>
<path d="M1990 1305 c0 -9 6 -12 15 -9 8 4 12 10 9 15 -8 14 -24 10 -24 -6z"/>
<path d="M3347 1306 c-18 -14 -14 -46 7 -46 21 0 38 17 34 35 -4 24 -19 28
-41 11z"/>
<path d="M3075 920 c3 -5 13 -10 21 -10 8 0 12 5 9 10 -3 6 -13 10 -21 10 -8
0 -12 -4 -9 -10z"/>
<path d="M2250 885 c-16 -19 -10 -19 26 0 25 13 26 15 8 15 -12 0 -27 -7 -34
-15z"/>
<path d="M2940 881 c0 -5 7 -14 15 -21 16 -14 18 -10 9 14 -6 17 -24 22 -24 7z"/>
<path d="M2061 861 c-16 -30 -10 -43 12 -26 14 10 16 18 9 31 -9 16 -11 15
-21 -5z"/>
<path d="M2179 823 c-13 -15 -12 -15 9 -4 23 12 28 21 13 21 -5 0 -15 -7 -22
-17z"/>
<path d="M2060 790 c0 -5 5 -10 10 -10 6 0 10 5 10 10 0 6 -4 10 -10 10 -5 0
-10 -4 -10 -10z"/>
<path d="M2875 770 c-7 -12 11 -40 26 -40 14 0 10 26 -5 39 -10 9 -16 9 -21 1z"/>
<path d="M3090 772 c0 -13 23 -32 37 -32 11 0 11 5 3 20 -10 19 -40 28 -40 12z"/>
<path d="M2304 754 c3 -9 6 -17 6 -20 0 -2 7 -1 15 2 23 9 18 34 -6 34 -15 0
-19 -4 -15 -16z"/>
<path d="M2491 748 c-13 -34 0 -45 21 -19 18 23 16 41 -3 41 -5 0 -13 -10 -18
-22z"/>
<path d="M2009 744 c-21 -26 23 -98 110 -181 43 -41 55 -41 71 -2 16 37 5 62
-29 67 -11 2 -21 10 -21 18 0 8 -13 20 -30 25 -17 6 -30 18 -30 27 0 15 -2 15
-10 2 -8 -13 -10 -12 -10 3 0 11 -5 15 -11 11 -7 -4 -9 0 -5 14 8 25 -18 37
-35 16z"/>
<path d="M2910 686 c0 -9 5 -16 10 -16 6 0 10 4 10 9 0 6 -4 13 -10 16 -5 3
-10 -1 -10 -9z"/>
<path d="M3110 691 c0 -13 48 -46 56 -38 3 2 -9 15 -25 27 -17 12 -31 17 -31
11z"/>
<path d="M2431 662 c-17 -20 -20 -27 -10 -31 8 -2 17 -9 21 -15 10 -15 20 16
16 48 l-3 25 -24 -27z"/>
<path d="M2879 681 c7 -5 11 -13 7 -19 -7 -11 12 -28 20 -19 9 8 -16 47 -29
47 -8 0 -8 -3 2 -9z"/>
<path d="M3186 665 c4 -8 10 -15 15 -15 4 0 6 7 3 15 -4 8 -10 15 -15 15 -4 0
-6 -7 -3 -15z"/>
<path d="M2962 626 c24 -36 34 -40 24 -9 -3 10 -15 24 -26 31 -19 12 -19 11 2
-22z"/>
<path d="M2765 620 c-3 -5 -1 -10 4 -10 6 0 11 5 11 10 0 6 -2 10 -4 10 -3 0
-8 -4 -11 -10z"/>
<path d="M2886 603 c8 -32 12 -39 19 -31 9 8 -6 58 -16 58 -5 0 -6 -12 -3 -27z"/>
<path d="M2212 564 c-13 -20 -21 -41 -19 -48 6 -14 119 -71 170 -84 l37 -11
-1 57 c-1 31 -6 68 -11 82 -9 25 -10 24 -24 -15 -7 -22 -14 -41 -14 -41 0 -1
-9 -4 -20 -7 -16 -4 -20 0 -20 19 0 15 -5 24 -13 22 -12 -3 -51 31 -58 50 -2
6 -14 -5 -27 -24z"/>
</g>
</svg>
